<svg width="181" height="53" viewBox="0 0 181 53" fill="none" xmlns="http://www.w3.org/2000/svg">
<g id="Group">
<g id="Group_2">
<path id="Vector" d="M174.315 0H7.18519C3.49306 0 0.5 2.96611 0.5 6.625V46.375C0.5 50.0339 3.49306 53 7.18519 53H174.315C178.007 53 181 50.0339 181 46.375V6.625C181 2.96611 178.007 0 174.315 0Z" fill="black"/>
<path id="Vector_2" d="M63.9023 13.5679C63.9424 14.5484 63.5814 15.5024 62.8995 16.2179C62.1374 17.0129 61.0677 17.4369 59.958 17.4104C58.26 17.3839 56.7491 16.3504 56.0806 14.8134C55.4522 13.2632 55.8132 11.4744 57.0165 10.2819C57.7786 9.48692 58.8483 9.06292 59.958 9.08942C60.5196 9.08942 61.0811 9.19542 61.6026 9.42067C62.0839 9.63267 62.5117 9.95067 62.8594 10.3217L62.1507 11.0239C61.6159 10.4012 60.8137 10.0567 59.9714 10.0964C59.129 10.0964 58.3134 10.4277 57.7251 11.0239C57.1235 11.6334 56.816 12.4417 56.8427 13.2764C56.8427 14.5352 57.5781 15.6879 58.7413 16.1914C59.9179 16.6949 61.2817 16.4564 62.1909 15.5687C62.592 15.1314 62.8594 14.5484 62.8594 13.9522H59.958V13.0247H63.8354C63.8889 13.2102 63.9023 13.4222 63.9023 13.6077V13.5679ZM70.0259 10.2554H66.4159V12.7729H69.705V13.7269H66.4159V16.2444H70.0259V17.2249H65.3463V9.27492H70.0259V10.2554ZM74.4114 17.2249H73.3819V10.2554H71.149V9.27492H76.7111V10.2554H74.4114V17.2249ZM80.642 17.2249V9.27492H81.6715V17.2249H80.642ZM86.2441 17.2249H85.2146V10.2554H82.9684V9.27492H88.477V10.2554H86.2441V17.2249ZM98.9059 16.1914C97.3014 17.7814 94.6675 17.7814 93.0229 16.1914C92.2691 15.3915 91.8499 14.3378 91.8499 13.2433C91.8499 12.1488 92.2691 11.0951 93.0229 10.2952C93.8251 9.50017 94.868 9.07617 95.9644 9.07617C97.0875 9.07617 98.1438 9.51342 98.9059 10.2952C99.6778 11.0859 100.109 12.1431 100.109 13.2433C100.109 14.3435 99.6778 15.4007 98.9059 16.1914ZM93.7984 15.5289C95.0017 16.7214 96.9538 16.7214 98.1572 15.5289C99.3605 14.2304 99.3605 12.2694 98.1572 10.9709C96.9538 9.77842 95.0017 9.77842 93.7984 10.9709C92.5951 12.2694 92.5951 14.2304 93.7984 15.5289ZM101.553 17.2249V9.27492H102.81L106.714 15.4627V9.27492H107.744V17.2249H106.674L102.609 10.7324V17.2249H101.553Z" fill="white" stroke="white" stroke-width="0.2"/>
<path id="Vector_3" d="M91.6058 28.8188C88.4771 28.8188 85.9367 31.3628 85.9501 34.4633C85.9572 35.9592 86.5618 37.3915 87.6317 38.4468C88.7016 39.5021 90.1497 40.0945 91.6593 40.0945C94.7879 40.0945 97.3283 37.577 97.3283 34.4633C97.3684 32.9528 96.7667 31.5085 95.6971 30.4485C94.6275 29.3885 93.1567 28.8055 91.6325 28.832L91.6058 28.8188ZM91.6058 37.8685C90.1885 37.9613 88.8648 37.206 88.2632 35.934C87.6481 34.662 87.8621 33.1515 88.8381 32.1313C89.8008 31.0978 91.2983 30.7665 92.6219 31.27C93.959 31.8 94.8147 33.0455 94.8147 34.45C94.8548 35.3245 94.5472 36.1725 93.9322 36.835C93.3305 37.471 92.4882 37.842 91.6058 37.8685ZM79.1713 28.8188C76.0159 28.8188 73.4889 31.3363 73.4889 34.4633C73.4889 35.955 74.0869 37.3857 75.1513 38.4405C76.2157 39.4953 77.6593 40.0879 79.1646 40.0879C80.6699 40.0879 82.1136 39.4953 83.178 38.4405C84.2424 37.3857 84.8404 35.955 84.8404 34.4633C84.8404 32.9528 84.2521 31.5085 83.1824 30.4485C82.1128 29.3885 80.6421 28.8055 79.1178 28.832L79.1713 28.8188ZM79.1713 37.8685C77.7407 37.9745 76.417 37.206 75.802 35.9473C75.187 34.6753 75.4009 33.1648 76.3769 32.1313C76.8496 31.631 77.4622 31.2818 78.1362 31.1284C78.8102 30.975 79.5151 31.0243 80.1607 31.27C81.4978 31.8 82.3535 33.0455 82.3535 34.45C82.3936 35.3245 82.0861 36.1725 81.471 36.835C80.8694 37.471 80.027 37.842 79.1446 37.8685H79.1713ZM64.3302 30.5545V32.9395H70.1062C70.0126 34.0658 69.5447 35.1258 68.7692 35.9473C67.606 37.1398 65.9881 37.7625 64.3168 37.6963C62.6374 37.6623 61.0384 36.9773 59.8628 35.7883C58.6872 34.5992 58.0287 33.0009 58.0287 31.3363C58.0287 29.6716 58.6872 28.0733 59.8628 26.8843C61.0384 25.6952 62.6374 25.0103 64.3168 24.9763C65.948 24.9498 67.5257 25.5593 68.689 26.6988L70.387 25.0028C69.593 24.2133 68.6488 23.5879 67.6091 23.1625C66.5694 22.7372 65.455 22.5205 64.3302 22.525C61.0946 22.3925 58.0461 24.0355 56.3882 26.8048C55.5744 28.157 55.1448 29.7022 55.1448 31.2767C55.1448 32.8511 55.5744 34.3963 56.3882 35.7485C57.1987 37.1061 58.365 38.2208 59.7634 38.9743C61.1617 39.7279 62.7398 40.0921 64.3302 40.0283C66.6433 40.1608 68.8761 39.2333 70.4806 37.5903C71.8945 36.0722 72.6486 34.0635 72.5797 31.9988C72.5797 31.4953 72.553 30.9918 72.446 30.5015L64.3436 30.581L64.3302 30.5545ZM124.898 32.4095C124.557 31.3921 123.908 30.5032 123.04 29.8633C122.172 29.2234 121.126 28.8634 120.045 28.832C118.574 28.832 117.17 29.415 116.167 30.4883C115.138 31.5483 114.616 33.0058 114.696 34.4633C114.696 35.9605 115.258 37.4048 116.328 38.4648C117.397 39.5248 118.841 40.121 120.339 40.0945C122.251 40.0945 124.029 39.167 125.085 37.6035L123.146 36.2785C122.558 37.2458 121.502 37.842 120.339 37.842C119.162 37.8818 118.066 37.206 117.598 36.1195L125.219 33.019L124.925 32.436L124.898 32.4095ZM117.143 34.291C117.103 33.4695 117.384 32.648 117.945 32.0385C118.507 31.4158 119.282 31.0448 120.125 31.005C121.007 30.952 121.836 31.4025 122.237 32.1975L117.157 34.291H117.143ZM111.006 39.75H113.493V23.1875H110.993V39.75H111.006ZM106.901 30.0775H106.808C106.046 29.2295 104.963 28.7525 103.813 28.7525C100.778 28.885 98.3979 31.376 98.3979 34.3838C98.3979 37.4048 100.805 39.8825 103.826 40.0283C104.976 40.0548 106.073 39.5778 106.821 38.7033H106.901V39.5248C106.901 41.6845 105.738 42.8373 103.866 42.8373C103.243 42.823 102.638 42.6268 102.127 42.2733C101.615 41.9197 101.22 41.4246 100.992 40.8498L98.8124 41.7375C99.2292 42.7208 99.9301 43.56 100.827 44.1494C101.724 44.7389 102.777 45.0522 103.853 45.05C106.768 45.05 109.201 43.3275 109.201 39.1803V29.15H106.888V30.0775H106.901ZM104.04 37.8685C102.249 37.7095 100.885 36.2255 100.885 34.45C100.885 32.6745 102.249 31.1905 104.04 31.0315C104.909 31.0713 105.712 31.4688 106.286 32.0915C106.875 32.754 107.156 33.5888 107.089 34.45C107.169 35.3113 106.875 36.1725 106.286 36.8085C105.725 37.471 104.909 37.842 104.04 37.8685ZM136.61 23.1875H130.647V39.75H133.148V33.4695H136.651C138.589 33.602 140.448 32.6745 141.464 31.005C142.48 29.362 142.48 27.295 141.464 25.652C140.967 24.843 140.255 24.1852 139.406 23.7505C138.557 23.3157 137.604 23.121 136.651 23.1875H136.61ZM136.61 31.1375H133.134V25.493H136.677C138.255 25.493 139.552 26.765 139.552 28.3418C139.552 29.892 138.255 31.164 136.677 31.164L136.624 31.1243L136.61 31.1375ZM152.04 28.7525C150.168 28.6465 148.43 29.6403 147.588 31.27L149.82 32.1975C150.262 31.376 151.157 30.899 152.093 30.9785C152.735 30.899 153.377 31.0845 153.885 31.5085C154.393 31.906 154.714 32.4758 154.781 33.0985V33.284C153.979 32.86 153.083 32.648 152.174 32.648C149.767 32.648 147.36 33.973 147.36 36.358C147.414 37.418 147.895 38.372 148.657 39.061C149.419 39.75 150.449 40.0945 151.492 40.015C152.775 40.1078 154.005 39.485 154.701 38.425H154.781V39.75H157.187V33.39C157.187 30.475 154.968 28.7923 152.107 28.7923L152.053 28.7525H152.04ZM151.732 37.8288C150.93 37.8288 149.794 37.4313 149.794 36.4243C149.794 35.0993 151.211 34.6488 152.468 34.6488C153.27 34.6488 154.045 34.821 154.741 35.2053C154.656 35.9246 154.312 36.5893 153.771 37.0765C153.23 37.5636 152.53 37.8403 151.799 37.8553L151.746 37.8155L151.732 37.8288ZM165.958 29.15L163.097 36.3315H163.017L160.035 29.15H157.361L161.814 39.1935L159.273 44.7585H161.88L168.726 29.15H165.945H165.958ZM143.496 39.75H145.983V23.1875H143.483V39.75H143.496Z" fill="white"/>
<path id="Vector_4" d="M14.4587 10.0038C14.0175 10.5338 13.7902 11.236 13.8704 11.925V41.075C13.8303 41.7375 14.0442 42.4 14.4854 42.93L14.579 43.0228L31.1182 26.6987V26.3013L14.5389 9.9375L14.4587 10.0303V10.0038Z" fill="url(#paint0_linear_21_408)"/>
<path id="Vector_5" d="M36.6001 32.1577L31.0781 26.6855V26.288L36.6001 20.8555L36.7338 20.9085L43.2853 24.592C45.1571 25.652 45.1571 27.3745 43.2853 28.4345L36.7338 32.1047L36.6001 32.1577Z" fill="url(#paint1_linear_21_408)"/>
<path id="Vector_6" d="M36.7337 32.0915L31.1182 26.5L14.4453 42.9963C15.2475 43.6853 16.3974 43.7117 17.2263 43.0757L36.7471 32.1047" fill="url(#paint2_linear_21_408)"/>
<path id="Vector_7" d="M36.7337 20.9083L17.213 9.91084C16.8123 9.60606 16.3172 9.44867 15.8124 9.46559C15.3075 9.48251 14.8243 9.67268 14.4453 10.0036L31.1182 26.4998L36.7337 20.9083Z" fill="#00F076"/>
</g>
</g>
<defs>
<linearGradient id="paint0_linear_21_408" x1="877.039" y1="9.9375" x2="877.039" y2="3318.46" gradientUnits="userSpaceOnUse">
<stop offset="0.03938" stop-color="#00C3FF"/>
<stop offset="0.97744" stop-color="#00E1FF"/>
</linearGradient>
<linearGradient id="paint1_linear_21_408" x1="1130.13" y1="585.968" x2="-2102.83" y2="585.968" gradientUnits="userSpaceOnUse">
<stop stop-color="#FDDE31"/>
<stop offset="0.4" stop-color="#FABC31"/>
<stop offset="0.77" stop-color="#F8A431"/>
<stop offset="1" stop-color="#F79B31"/>
</linearGradient>
<linearGradient id="paint2_linear_21_408" x1="1935.77" y1="329.921" x2="-162.763" y2="3896.37" gradientUnits="userSpaceOnUse">
<stop stop-color="#FF3A44"/>
<stop offset="1" stop-color="#C4206D"/>
</linearGradient>
</defs>
</svg>
